<svg width="62" height="62" viewBox="0 0 62 62" fill="none" xmlns="http://www.w3.org/2000/svg">
<g clip-path="url(#clip0_29_19)">
<path d="M54.25 20.6667C50.5042 20.6667 48.4117 24.3867 49.2642 27.1509L40.0933 36.3476C39.3183 36.1151 38.1817 36.1151 37.4067 36.3476L30.8192 29.7601C31.6975 26.9959 29.605 23.2501 25.8333 23.2501C22.0875 23.2501 19.9692 26.9701 20.8475 29.7601L9.06751 41.5142C6.30334 40.6617 2.58334 42.7542 2.58334 46.5001C2.58334 49.3417 4.90834 51.6667 7.75001 51.6667C11.4958 51.6667 13.5883 47.9467 12.7358 45.1826L24.49 33.4026C25.265 33.6351 26.4017 33.6351 27.1767 33.4026L33.7642 39.9901C32.8858 42.7542 34.9783 46.5001 38.75 46.5001C42.4958 46.5001 44.6142 42.7801 43.7358 39.9901L52.9325 30.8192C55.6967 31.6717 59.4167 29.5792 59.4167 25.8334C59.4167 22.9917 57.0917 20.6667 54.25 20.6667Z" fill="#06D6A0"/>
<path d="M38.75 23.25L41.1783 17.9025L46.5 15.5L41.1783 13.0975L38.75 7.75L36.3733 13.0975L31 15.5L36.3733 17.9025L38.75 23.25Z" fill="#06D6A0"/>
<path d="M9.04168 28.4167L10.3333 23.25L15.5 21.9583L10.3333 20.6667L9.04168 15.5L7.75001 20.6667L2.58334 21.9583L7.75001 23.25L9.04168 28.4167Z" fill="#06D6A0"/>
</g>
<defs>
<clipPath id="clip0_29_19">
<rect width="62" height="62" fill="white"/>
</clipPath>
</defs>
</svg>
