<svg width="62" height="62" viewBox="0 0 62 62" fill="none" xmlns="http://www.w3.org/2000/svg">
<g clip-path="url(#clip0_29_15)">
<path d="M11.8575 17.7992C13.6658 15.965 15.4742 14.3117 16.275 14.6475C17.5667 15.1642 16.275 17.3083 15.5 18.5742C14.8542 19.6592 8.11167 28.6233 8.11167 34.875C8.11167 38.1817 9.35167 40.92 11.5733 42.5733C13.5108 44.02 16.0683 44.4592 18.3933 43.7617C21.1575 42.9608 23.4308 40.145 26.2983 36.6058C29.4242 32.7567 33.6092 27.7192 36.8383 27.7192C41.0492 27.7192 41.1008 30.3283 41.385 32.3433C31.62 33.9967 27.4867 41.8242 27.4867 46.2158C27.4867 50.6075 31.2067 54.1983 35.7792 54.1983C39.99 54.1983 46.8617 50.7625 47.895 38.44H54.25V31.9817H47.8692C47.4817 27.7192 45.0533 21.1317 37.4583 21.1317C31.6458 21.1317 26.66 26.0658 24.6967 28.4683C23.1983 30.3542 19.375 34.875 18.7808 35.495C18.135 36.27 17.0242 37.665 15.9133 37.665C14.7508 37.665 14.0533 35.5208 14.9833 32.705C15.8875 29.8892 18.6 25.3167 19.7625 23.6117C21.7775 20.6667 23.1208 18.6517 23.1208 15.1383C23.1208 9.5325 18.8842 7.75 16.6367 7.75C13.2267 7.75 10.2558 10.3333 9.61 10.9792C8.68 11.9092 7.905 12.6842 7.33667 13.3817L11.8575 17.7992ZM35.8567 47.9208C35.0558 47.9208 33.945 47.2492 33.945 46.0608C33.945 44.5108 35.8308 40.3775 41.3592 38.9308C40.5842 45.88 37.665 47.9208 35.8567 47.9208Z" fill="#06D6A0"/>
</g>
<defs>
<clipPath id="clip0_29_15">
<rect width="62" height="62" fill="white"/>
</clipPath>
</defs>
</svg>
