<svg width="62" height="62" viewBox="0 0 62 62" fill="none" xmlns="http://www.w3.org/2000/svg">
<g clip-path="url(#clip0_29_7)">
<path d="M51.6667 36.1666C54.5201 36.1666 56.8333 33.8534 56.8333 30.9999C56.8333 28.1464 54.5201 25.8333 51.6667 25.8333C48.8132 25.8333 46.5 28.1464 46.5 30.9999C46.5 33.8534 48.8132 36.1666 51.6667 36.1666Z" fill="#06D6A0"/>
<path d="M10.3333 36.1666C13.1868 36.1666 15.5 33.8534 15.5 30.9999C15.5 28.1464 13.1868 25.8333 10.3333 25.8333C7.47987 25.8333 5.16667 28.1464 5.16667 30.9999C5.16667 33.8534 7.47987 36.1666 10.3333 36.1666Z" fill="#06D6A0"/>
<path d="M31 56.8333C33.8535 56.8333 36.1667 54.5201 36.1667 51.6667C36.1667 48.8132 33.8535 46.5 31 46.5C28.1465 46.5 25.8333 48.8132 25.8333 51.6667C25.8333 54.5201 28.1465 56.8333 31 56.8333Z" fill="#06D6A0"/>
<path d="M25.9625 22.1908L15.5775 11.7541H15.5517L14.7508 10.9275L11.0825 14.57L21.4675 25.0325L21.4933 25.0066L22.2942 25.8333L25.9625 22.1908ZM36.0194 22.2606L47.399 10.9146L51.0467 14.57L39.6671 25.9186L36.0194 22.2606ZM25.8592 39.68L22.1908 36.0375L11.78 46.3966L10.9533 47.2491L14.5958 50.8916L25.0067 40.5066L25.8592 39.68ZM51.0467 47.275L40.7392 36.9158L39.8092 36.0116L36.1667 39.6541L46.4742 50.0133L47.3783 50.9175L51.0467 47.275Z" fill="#06D6A0"/>
<path d="M31 15.5001C33.8535 15.5001 36.1667 13.1869 36.1667 10.3334C36.1667 7.47994 33.8535 5.16675 31 5.16675C28.1465 5.16675 25.8333 7.47994 25.8333 10.3334C25.8333 13.1869 28.1465 15.5001 31 15.5001Z" fill="#06D6A0"/>
</g>
<defs>
<clipPath id="clip0_29_7">
<rect width="62" height="62" fill="white"/>
</clipPath>
</defs>
</svg>
